<svg width="274" height="202" viewBox="0 0 274 202" fill="none" xmlns="http://www.w3.org/2000/svg">
<g clip-path="url(#clip0_1_36086)">
<path d="M166.434 56.6593C182.08 56.6593 194.763 43.9757 194.763 28.3297C194.763 12.6836 182.08 0 166.434 0C150.788 0 138.104 12.6836 138.104 28.3297C138.104 43.9757 150.788 56.6593 166.434 56.6593Z" fill="url(#paint0_linear_1_36086)"/>
<path d="M208.245 59.3392C217.831 59.3392 225.602 51.568 225.602 41.9818C225.602 32.3956 217.831 24.6244 208.245 24.6244C198.658 24.6244 190.887 32.3956 190.887 41.9818C190.887 51.568 198.658 59.3392 208.245 59.3392Z" fill="url(#paint1_linear_1_36086)"/>
<path d="M44.0091 71.9453C53.5953 71.9453 61.3665 64.1741 61.3665 54.5879C61.3665 45.0017 53.5953 37.2305 44.0091 37.2305C34.4229 37.2305 26.6517 45.0017 26.6517 54.5879C26.6517 64.1741 34.4229 71.9453 44.0091 71.9453Z" fill="url(#paint2_linear_1_36086)"/>
<path d="M67.9499 73.3057C73.9606 73.3057 78.8333 68.4331 78.8333 62.4223C78.8333 56.4116 73.9606 51.5389 67.9499 51.5389C61.9391 51.5389 57.0665 56.4116 57.0665 62.4223C57.0665 68.4331 61.9391 73.3057 67.9499 73.3057Z" fill="url(#paint3_linear_1_36086)"/>
<path d="M190.887 61.4857C195.682 61.4857 199.569 57.5986 199.569 52.8036C199.569 48.0086 195.682 44.1215 190.887 44.1215C186.092 44.1215 182.205 48.0086 182.205 52.8036C182.205 57.5986 186.092 61.4857 190.887 61.4857Z" fill="url(#paint4_linear_1_36086)"/>
<path d="M137.003 144C205.866 144 261.691 130.508 261.691 113.866C261.691 97.2227 205.866 83.7311 137.003 83.7311C68.1404 83.7311 12.316 97.2227 12.316 113.866C12.316 130.508 68.1404 144 137.003 144Z" fill="url(#paint5_linear_1_36086)"/>
<path d="M58.0236 113.852C60.4513 113.852 62.4193 113.377 62.4193 112.792C62.4193 112.207 60.4513 111.733 58.0236 111.733C55.5959 111.733 53.6278 112.207 53.6278 112.792C53.6278 113.377 55.5959 113.852 58.0236 113.852Z" fill="url(#paint6_linear_1_36086)"/>
<path d="M57.9073 109.415C58.905 108.499 59.7029 107.387 60.2511 106.148C60.7992 104.909 61.0859 103.571 61.093 102.216C61.093 97.6361 57.9962 87.0193 57.8663 87.0193C57.7364 87.0193 54.954 97.9574 54.954 102.237C55.0378 104.908 56.0871 107.458 57.9073 109.415Z" fill="#D8DDE1"/>
<path d="M58.1808 108.506H57.9484L57.6339 111.972L58.4338 112.204L58.1808 108.506Z" fill="#C8CFD6"/>
<path d="M57.8663 91.7023C57.8663 91.7023 55.9863 97.8549 55.9863 100.036C55.9966 100.697 56.1385 101.349 56.4038 101.955C56.6691 102.561 57.0524 103.107 57.5313 103.563C58.2072 103.151 58.7561 102.56 59.118 101.855C59.4798 101.151 59.6404 100.361 59.5822 99.5709C59.1561 96.9172 58.5786 94.29 57.8526 91.7023" fill="#C8CFD6"/>
</g>
<g clip-path="url(#clip1_1_36086)">
<path fill-rule="evenodd" clip-rule="evenodd" d="M101.252 117.926L99.885 132.966L142.954 141.17L177.819 130.915L176.452 116.559L141.586 118.61L101.252 117.926Z" fill="url(#paint7_linear_1_36086)"/>
<path fill-rule="evenodd" clip-rule="evenodd" d="M115.485 72.2666C115.486 73.0136 115.265 73.744 114.85 74.3654C114.436 74.9868 113.846 75.4713 113.156 75.7575C112.466 76.0437 111.707 76.1189 110.974 75.9735C110.241 75.8281 109.568 75.4687 109.04 74.9407C108.511 74.4127 108.151 73.7397 108.006 73.0071C107.86 72.2745 107.934 71.5151 108.22 70.8249C108.506 70.1347 108.99 69.5447 109.611 69.1297C110.232 68.7146 110.962 68.4929 111.709 68.4929C112.71 68.494 113.669 68.8919 114.377 69.5993C115.085 70.3067 115.484 71.2658 115.485 72.2666Z" fill="url(#paint8_linear_1_36086)"/>
<path fill-rule="evenodd" clip-rule="evenodd" d="M135.005 76.2249V108.896L173.675 107.754L175.941 79.3217L135.005 76.2249Z" fill="#8492D7"/>
<path fill-rule="evenodd" clip-rule="evenodd" d="M135.85 76.2249L101.737 81.8443L103.438 107.18L135.85 108.896V76.2249Z" fill="#98A6E7"/>
<path d="M103.303 47.5123C103.303 47.5123 132.386 51.9833 131.332 87.1629" stroke="#BBBBBB" stroke-width="0.683631"/>
<path d="M132.016 91.2441C127.776 84.4069 125.911 76.3614 126.711 68.3562C127.294 62.9008 128.805 57.6163 129.772 52.2293C130.543 47.9361 131.491 44.4496 129.853 39.131" stroke="#BBBBBB" stroke-width="0.683631"/>
<path d="M145.605 41.3528C145.605 41.3528 153.877 67.4197 127.222 95.4075" stroke="#BBBBBB" stroke-width="0.683631"/>
<path d="M158.677 39.9855C158.373 42.8705 158.267 45.8921 157.391 48.6745C156.479 51.2055 155.242 53.607 153.71 55.8184C147.097 66.1549 129.279 71.6104 133.885 87.5868" stroke="#BBBBBB" stroke-width="0.683631"/>
<path fill-rule="evenodd" clip-rule="evenodd" d="M134.667 30.4215C134.313 34.4754 131.876 40.2795 131.75 40.5667C131.643 40.8288 131.454 41.0493 131.212 41.1955C130.963 41.3423 130.67 41.3979 130.385 41.3528C130.071 41.3254 123.744 40.5256 119.788 38.8439C118.444 38.1739 116.526 37.4835 115.386 35.6035C113.467 32.4383 113.922 29.1704 116.886 27.4613C118.532 26.5111 121.255 27.0103 123.056 27.7554C123.261 25.8413 124.117 23.2912 125.763 22.341C128.739 20.625 132.015 21.7325 133.934 24.8977C135.074 26.7777 134.73 28.9517 134.665 30.4215H134.667Z" fill="url(#paint9_linear_1_36086)"/>
<path fill-rule="evenodd" clip-rule="evenodd" d="M148.696 40.2726L147.704 39.1995C147.538 38.9867 147.417 38.7425 147.347 38.4818C147.277 38.221 147.261 37.949 147.299 37.6818L147.615 36.2119C147.696 35.9944 147.707 35.757 147.646 35.5329C147.586 35.3088 147.457 35.1093 147.277 34.9623C147.097 34.8153 146.876 34.7282 146.644 34.7133C146.413 34.6983 146.182 34.7562 145.985 34.8789L144.682 35.5009C144.438 35.5888 144.177 35.6246 143.918 35.6057C143.659 35.5869 143.407 35.5139 143.178 35.3916L141.814 34.6806C141.616 34.5739 141.392 34.525 141.167 34.5395C140.942 34.554 140.726 34.6314 140.543 34.7627C140.365 34.9111 140.229 35.1051 140.152 35.3242C140.075 35.5432 140.058 35.7791 140.104 36.0068L140.283 37.4835C140.296 37.7554 140.255 38.0272 140.162 38.283C140.069 38.5388 139.926 38.7736 139.742 38.9738L138.648 39.9856C138.483 40.1176 138.352 40.2882 138.267 40.4824C138.183 40.6767 138.147 40.8887 138.163 41.1C138.206 41.3523 138.332 41.5832 138.52 41.7564C138.709 41.9296 138.95 42.0354 139.205 42.057L140.635 42.3098C140.889 42.3828 141.126 42.5057 141.332 42.6712C141.538 42.8367 141.709 43.0415 141.835 43.2739L142.415 44.6274C142.526 44.9266 142.738 45.178 143.014 45.3384C143.155 45.4014 143.307 45.4344 143.461 45.4354C143.615 45.4364 143.767 45.4053 143.909 45.3443C144.05 45.2832 144.177 45.1934 144.282 45.0806C144.387 44.9678 144.467 44.8345 144.518 44.689L145.219 43.3763C145.362 43.148 145.549 42.951 145.77 42.797C145.991 42.6431 146.24 42.5354 146.504 42.4807L147.952 42.3098C148.19 42.3112 148.422 42.2394 148.617 42.1039C148.812 41.9684 148.96 41.7761 149.041 41.5531C149.123 41.3301 149.133 41.0875 149.072 40.8583C149.01 40.6291 148.879 40.4245 148.696 40.2726Z" fill="url(#paint10_linear_1_36086)"/>
<path fill-rule="evenodd" clip-rule="evenodd" d="M102.394 52.4209L102.736 51.0059C102.819 50.7487 102.954 50.5111 103.132 50.3077C103.31 50.1044 103.528 49.9395 103.772 49.823L105.17 49.2626C105.396 49.2091 105.599 49.0864 105.751 48.9117C105.903 48.7371 105.997 48.5192 106.019 48.2885C106.041 48.0579 105.991 47.8261 105.874 47.6256C105.758 47.4251 105.582 47.2661 105.371 47.1706L104.128 46.4323C103.919 46.2774 103.745 46.0808 103.616 45.8548C103.488 45.6287 103.408 45.3783 103.382 45.1197L103.216 43.5952C103.194 43.3704 103.11 43.1562 102.973 42.9772C102.835 42.7982 102.65 42.6617 102.438 42.5835C102.215 42.5167 101.978 42.512 101.753 42.5698C101.528 42.6276 101.323 42.7458 101.16 42.9116L100.031 43.8823C99.8129 44.0448 99.5647 44.1619 99.3008 44.2265C99.0369 44.2911 98.7627 44.3019 98.4945 44.2584L97.0466 43.9165C96.8446 43.8517 96.6297 43.8378 96.421 43.876C96.2123 43.9141 96.0162 44.0032 95.8502 44.1353C95.6653 44.3114 95.5441 44.5439 95.5057 44.7963C95.4672 45.0487 95.5136 45.3068 95.6376 45.53L96.2194 46.863C96.3005 47.1141 96.3308 47.3789 96.3085 47.6418C96.2862 47.9047 96.2118 48.1605 96.0895 48.3944L95.2828 49.6318C95.0991 49.8902 95.01 50.2039 95.0305 50.5203C95.0558 50.6716 95.1123 50.816 95.1963 50.9443C95.2804 51.0725 95.3901 51.182 95.5187 51.2656C95.6473 51.3491 95.7918 51.4051 95.9432 51.4298C96.0945 51.4545 96.2493 51.4474 96.3978 51.4091L97.8847 51.2587C98.1536 51.2516 98.4211 51.2987 98.6713 51.3974C98.9215 51.4961 99.1493 51.6443 99.3409 51.833L100.29 52.9404C100.429 53.1287 100.618 53.2742 100.836 53.36C101.054 53.4459 101.291 53.4686 101.521 53.4258C101.746 53.3563 101.946 53.2255 102.101 53.0479C102.255 52.8703 102.357 52.6531 102.394 52.4209Z" fill="url(#paint11_linear_1_36086)"/>
<path fill-rule="evenodd" clip-rule="evenodd" d="M171.285 18.2187L167.655 18.8136C166.98 18.8643 166.302 18.7777 165.661 18.5592C165.021 18.3407 164.431 17.9946 163.928 17.5419L161.317 14.8142C159.385 12.7975 156.627 13.5837 156.249 16.3866L155.706 20.0168C155.542 20.6552 155.249 21.253 154.844 21.7729C154.439 22.2928 153.931 22.7236 153.352 23.0383L149.948 24.9252C149.444 25.1957 149.026 25.6015 148.741 26.0967C148.455 26.5918 148.314 27.1568 148.332 27.7281C148.384 28.3103 148.595 28.8671 148.941 29.3382C149.287 29.8094 149.755 30.1768 150.295 30.4011L153.622 32.0896C154.206 32.4451 154.712 32.9137 155.111 33.4679C155.51 34.0221 155.794 34.6506 155.947 35.3163L156.513 39.0423C156.552 39.5739 156.721 40.0877 157.006 40.5384C157.291 40.989 157.682 41.3626 158.145 41.6262C159.232 42.18 160.528 41.8725 161.597 40.7582L164.15 38.0988C164.655 37.6646 165.241 37.3357 165.874 37.1314C166.508 36.9271 167.176 36.8516 167.839 36.9092L171.479 37.586C172.258 37.7636 173.074 37.6671 173.79 37.3126C174.911 36.6905 175.585 35.1934 174.573 33.2314L172.822 29.902C172.552 29.2772 172.408 28.6046 172.401 27.9237C172.394 27.2428 172.523 26.5674 172.78 25.9369L174.465 22.6351C174.775 22.1305 174.937 21.5485 174.932 20.9561C174.927 20.3636 174.755 19.7845 174.436 19.2852C174.067 18.8264 173.574 18.4824 173.016 18.2935C172.458 18.1046 171.857 18.0787 171.285 18.2187Z" fill="url(#paint12_linear_1_36086)"/>
<path fill-rule="evenodd" clip-rule="evenodd" d="M101.244 118.487V82.3638L134.895 84.6677L142.278 85.1736V129.555L101.244 118.487Z" fill="#AFBBF4"/>
<path fill-rule="evenodd" clip-rule="evenodd" d="M176.452 79.6498L142.27 85.0641V129.541L176.452 116.183V79.6498Z" fill="#98A6E7"/>
<path fill-rule="evenodd" clip-rule="evenodd" d="M176.452 79.643L141.984 84.3328L146.372 103.57L182.604 94.6829L176.452 79.643Z" fill="#C2CBF6"/>
<path fill-rule="evenodd" clip-rule="evenodd" d="M101.252 81.7144L95.7832 96.0501L137.485 104.937L142.688 84.5037L101.252 81.7144Z" fill="#C2CBF6"/>
<path fill-rule="evenodd" clip-rule="evenodd" d="M120.394 109.723V123.395L112.874 121.344V108.355L120.394 109.723Z" fill="#BCC6F5"/>
<path fill-rule="evenodd" clip-rule="evenodd" d="M134.75 109.723V127.497L127.23 125.446V108.355L134.75 109.723Z" fill="#BCC6F5"/>
<path fill-rule="evenodd" clip-rule="evenodd" d="M156.626 115.875V124.079L164.146 121.344V113.141L156.626 115.875Z" fill="#BCC6F5"/>
<path fill-rule="evenodd" clip-rule="evenodd" d="M158.659 75.4659C158.659 76.5465 158.337 77.6026 157.736 78.5005C157.135 79.3985 156.282 80.098 155.283 80.5109C154.284 80.9237 153.186 81.0314 152.126 80.82C151.067 80.6086 150.093 80.0878 149.33 79.3234C148.566 78.559 148.046 77.5853 147.836 76.5254C147.625 75.4656 147.734 74.3672 148.147 73.369C148.561 72.3708 149.261 71.5177 150.16 70.9175C151.058 70.3173 152.115 69.9969 153.195 69.9969C153.913 69.9969 154.624 70.1384 155.287 70.4133C155.951 70.6882 156.553 71.0912 157.061 71.5991C157.568 72.1071 157.971 72.71 158.245 73.3735C158.519 74.037 158.66 74.748 158.659 75.4659Z" fill="url(#paint13_linear_1_36086)"/>
</g>
<path d="M1.19851 198V187.091H8.038V188.508H2.84446V191.832H7.68111V193.243H2.84446V196.583H8.10192V198H1.19851ZM11.7764 193.142V198H10.1838V189.818H11.7125V191.15H11.8137C12.0019 190.717 12.2967 190.369 12.698 190.106C13.1028 189.843 13.6124 189.712 14.2267 189.712C14.7843 189.712 15.2725 189.829 15.6916 190.063C16.1106 190.294 16.4355 190.638 16.6664 191.097C16.8972 191.555 17.0126 192.121 17.0126 192.796V198H15.4199V192.988C15.4199 192.395 15.2654 191.931 14.9565 191.597C14.6475 191.26 14.2232 191.091 13.6834 191.091C13.3141 191.091 12.9856 191.171 12.698 191.331C12.4139 191.491 12.1884 191.725 12.0215 192.034C11.8581 192.339 11.7764 192.709 11.7764 193.142ZM23.0428 189.818V191.097H18.5737V189.818H23.0428ZM19.7722 187.858H21.3649V195.598C21.3649 195.907 21.4111 196.139 21.5034 196.295C21.5958 196.448 21.7147 196.553 21.8603 196.61C22.0095 196.663 22.171 196.69 22.345 196.69C22.4729 196.69 22.5847 196.681 22.6806 196.663C22.7765 196.645 22.8511 196.631 22.9043 196.62L23.192 197.936C23.0997 197.972 22.9683 198.007 22.7978 198.043C22.6274 198.082 22.4143 198.103 22.1586 198.107C21.7396 198.114 21.349 198.039 20.9867 197.883C20.6245 197.727 20.3316 197.485 20.1078 197.158C19.8841 196.832 19.7722 196.422 19.7722 195.928V187.858ZM28.318 198.165C27.5119 198.165 26.8177 197.993 26.2353 197.648C25.6565 197.3 25.209 196.812 24.893 196.184C24.5805 195.551 24.4242 194.811 24.4242 193.962C24.4242 193.124 24.5805 192.386 24.893 191.746C25.209 191.107 25.6494 190.608 26.214 190.25C26.7822 189.891 27.4462 189.712 28.2062 189.712C28.6678 189.712 29.1153 189.788 29.5485 189.941C29.9817 190.093 30.3706 190.333 30.7151 190.66C31.0595 190.987 31.3312 191.411 31.53 191.933C31.7289 192.451 31.8283 193.082 31.8283 193.824V194.388H25.3244V193.195H30.2676C30.2676 192.776 30.1824 192.405 30.0119 192.082C29.8415 191.755 29.6018 191.498 29.2928 191.31C28.9874 191.121 28.6288 191.027 28.2168 191.027C27.7694 191.027 27.3788 191.137 27.045 191.358C26.7147 191.574 26.459 191.858 26.2779 192.21C26.1004 192.558 26.0116 192.936 26.0116 193.344V194.277C26.0116 194.824 26.1075 195.289 26.2992 195.672C26.4945 196.056 26.7662 196.349 27.1142 196.551C27.4622 196.75 27.8688 196.849 28.334 196.849C28.6359 196.849 28.9111 196.807 29.1597 196.722C29.4082 196.633 29.6231 196.501 29.8042 196.327C29.9853 196.153 30.1238 195.939 30.2197 195.683L31.7271 195.955C31.6064 196.398 31.3898 196.787 31.0773 197.121C30.7683 197.451 30.3795 197.709 29.9107 197.893C29.4455 198.075 28.9146 198.165 28.318 198.165ZM33.6705 198V189.818H35.2099V191.118H35.2951C35.4443 190.678 35.707 190.331 36.0835 190.079C36.4634 189.824 36.8931 189.696 37.3725 189.696C37.472 189.696 37.5892 189.699 37.7241 189.706C37.8626 189.713 37.9709 189.722 38.049 189.733V191.256C37.9851 191.239 37.8715 191.219 37.7081 191.198C37.5448 191.173 37.3814 191.161 37.2181 191.161C36.8416 191.161 36.5061 191.24 36.2113 191.4C35.9201 191.556 35.6893 191.775 35.5188 192.055C35.3484 192.332 35.2632 192.648 35.2632 193.004V198H33.6705ZM45.9281 198.181C45.4096 198.181 44.9409 198.085 44.5218 197.893C44.1028 197.698 43.7708 197.416 43.5257 197.047C43.2843 196.677 43.1635 196.224 43.1635 195.688C43.1635 195.227 43.2523 194.847 43.4298 194.548C43.6074 194.25 43.8471 194.014 44.149 193.84C44.4508 193.666 44.7882 193.534 45.161 193.446C45.5339 193.357 45.9139 193.289 46.3009 193.243C46.791 193.186 47.1887 193.14 47.4941 193.105C47.7995 193.066 48.0215 193.004 48.16 192.918C48.2985 192.833 48.3677 192.695 48.3677 192.503V192.466C48.3677 192 48.2363 191.64 47.9735 191.384C47.7143 191.129 47.3272 191.001 46.8123 191.001C46.2761 191.001 45.8535 191.12 45.5445 191.358C45.2392 191.592 45.0279 191.853 44.9107 192.141L43.4139 191.8C43.5914 191.303 43.8507 190.901 44.1916 190.596C44.536 190.287 44.932 190.063 45.3794 189.925C45.8269 189.783 46.2974 189.712 46.791 189.712C47.1177 189.712 47.4639 189.751 47.8297 189.829C48.199 189.903 48.5435 190.042 48.8631 190.244C49.1862 190.447 49.4508 190.736 49.6568 191.113C49.8627 191.485 49.9657 191.97 49.9657 192.567V198H48.4103V196.881H48.3464C48.2434 197.087 48.0889 197.29 47.883 197.489C47.677 197.687 47.4124 197.853 47.0893 197.984C46.7661 198.115 46.3791 198.181 45.9281 198.181ZM46.2743 196.903C46.7146 196.903 47.0911 196.816 47.4036 196.642C47.7196 196.468 47.9593 196.24 48.1227 195.96C48.2896 195.676 48.373 195.372 48.373 195.049V193.994C48.3162 194.051 48.2061 194.104 48.0428 194.154C47.883 194.2 47.7001 194.241 47.4941 194.277C47.2882 194.309 47.0875 194.339 46.8922 194.367C46.6969 194.392 46.5335 194.413 46.4021 194.431C46.0932 194.47 45.8109 194.536 45.5552 194.628C45.3031 194.721 45.1007 194.854 44.948 195.028C44.7988 195.198 44.7242 195.425 44.7242 195.71C44.7242 196.104 44.8698 196.402 45.161 196.604C45.4522 196.803 45.8233 196.903 46.2743 196.903ZM63.2061 189.818L60.2391 198H58.5346L55.5623 189.818H57.2721L59.3442 196.114H59.4295L61.4962 189.818H63.2061ZM66.9246 198.181C66.4061 198.181 65.9373 198.085 65.5183 197.893C65.0993 197.698 64.7672 197.416 64.5222 197.047C64.2807 196.677 64.16 196.224 64.16 195.688C64.16 195.227 64.2488 194.847 64.4263 194.548C64.6039 194.25 64.8436 194.014 65.1454 193.84C65.4473 193.666 65.7846 193.534 66.1575 193.446C66.5304 193.357 66.9104 193.289 67.2974 193.243C67.7875 193.186 68.1852 193.14 68.4906 193.105C68.796 193.066 69.018 193.004 69.1564 192.918C69.2949 192.833 69.3642 192.695 69.3642 192.503V192.466C69.3642 192 69.2328 191.64 68.97 191.384C68.7108 191.129 68.3237 191.001 67.8088 191.001C67.2726 191.001 66.85 191.12 66.541 191.358C66.2356 191.592 66.0243 191.853 65.9072 192.141L64.4104 191.8C64.5879 191.303 64.8471 190.901 65.188 190.596C65.5325 190.287 65.9285 190.063 66.3759 189.925C66.8233 189.783 67.2939 189.712 67.7875 189.712C68.1142 189.712 68.4604 189.751 68.8262 189.829C69.1955 189.903 69.54 190.042 69.8596 190.244C70.1827 190.447 70.4473 190.736 70.6532 191.113C70.8592 191.485 70.9622 191.97 70.9622 192.567V198H69.4068V196.881H69.3429C69.2399 197.087 69.0854 197.29 68.8795 197.489C68.6735 197.687 68.4089 197.853 68.0858 197.984C67.7626 198.115 67.3755 198.181 66.9246 198.181ZM67.2708 196.903C67.7111 196.903 68.0876 196.816 68.4001 196.642C68.7161 196.468 68.9558 196.24 69.1192 195.96C69.2861 195.676 69.3695 195.372 69.3695 195.049V193.994C69.3127 194.051 69.2026 194.104 69.0393 194.154C68.8795 194.2 68.6966 194.241 68.4906 194.277C68.2846 194.309 68.084 194.339 67.8887 194.367C67.6934 194.392 67.53 194.413 67.3986 194.431C67.0897 194.47 66.8074 194.536 66.5517 194.628C66.2996 194.721 66.0971 194.854 65.9444 195.028C65.7953 195.198 65.7207 195.425 65.7207 195.71C65.7207 196.104 65.8663 196.402 66.1575 196.604C66.4487 196.803 66.8198 196.903 67.2708 196.903ZM74.7512 187.091V198H73.1586V187.091H74.7512ZM76.9689 198V189.818H78.5616V198H76.9689ZM77.7732 188.556C77.4963 188.556 77.2583 188.463 77.0595 188.279C76.8641 188.091 76.7665 187.867 76.7665 187.608C76.7665 187.345 76.8641 187.121 77.0595 186.936C77.2583 186.748 77.4963 186.654 77.7732 186.654C78.0502 186.654 78.2864 186.748 78.4817 186.936C78.6806 187.121 78.78 187.345 78.78 187.608C78.78 187.867 78.6806 188.091 78.4817 188.279C78.2864 188.463 78.0502 188.556 77.7732 188.556ZM83.8421 198.16C83.1816 198.16 82.5921 197.991 82.0737 197.654C81.5587 197.313 81.1539 196.828 80.8592 196.2C80.568 195.567 80.4224 194.809 80.4224 193.925C80.4224 193.041 80.5697 192.284 80.8645 191.656C81.1628 191.027 81.5712 190.546 82.0896 190.212C82.6081 189.879 83.1958 189.712 83.8528 189.712C84.3606 189.712 84.769 189.797 85.0779 189.967C85.3904 190.134 85.6319 190.33 85.8023 190.553C85.9764 190.777 86.1113 190.974 86.2072 191.145H86.3031V187.091H87.8957V198H86.3403V196.727H86.2072C86.1113 196.901 85.9728 197.1 85.7917 197.324C85.6141 197.547 85.3691 197.743 85.0566 197.909C84.7441 198.076 84.3393 198.16 83.8421 198.16ZM84.1937 196.801C84.6518 196.801 85.0389 196.681 85.3549 196.439C85.6745 196.194 85.916 195.855 86.0793 195.422C86.2462 194.989 86.3297 194.484 86.3297 193.909C86.3297 193.341 86.248 192.844 86.0847 192.418C85.9213 191.991 85.6816 191.659 85.3656 191.422C85.0495 191.184 84.6589 191.065 84.1937 191.065C83.7143 191.065 83.3148 191.189 82.9952 191.438C82.6756 191.686 82.4341 192.025 82.2707 192.455C82.1109 192.885 82.031 193.369 82.031 193.909C82.031 194.456 82.1127 194.948 82.2761 195.385C82.4394 195.821 82.6809 196.168 83.0005 196.423C83.3237 196.675 83.7214 196.801 84.1937 196.801ZM95.338 198H93.5908L97.5166 187.091H99.4183L103.344 198H101.597L98.5127 189.072H98.4275L95.338 198ZM95.631 193.728H101.299V195.113H95.631V193.728ZM106.193 198L103.167 187.091H104.899L107.024 195.539H107.125L109.336 187.091H111.051L113.261 195.544H113.363L115.483 187.091H117.219L114.188 198H112.532L110.236 189.829H110.151L107.855 198H106.193ZM118.795 198V187.091H122.79C123.564 187.091 124.205 187.219 124.713 187.474C125.221 187.727 125.601 188.069 125.853 188.502C126.105 188.932 126.231 189.417 126.231 189.957C126.231 190.411 126.148 190.795 125.981 191.107C125.814 191.416 125.59 191.665 125.31 191.853C125.033 192.038 124.727 192.173 124.393 192.258V192.364C124.756 192.382 125.109 192.499 125.453 192.716C125.801 192.929 126.089 193.233 126.316 193.627C126.544 194.021 126.657 194.5 126.657 195.065C126.657 195.623 126.526 196.123 126.263 196.567C126.004 197.007 125.603 197.357 125.059 197.616C124.516 197.872 123.822 198 122.976 198H118.795ZM120.441 196.588H122.817C123.605 196.588 124.17 196.436 124.511 196.13C124.851 195.825 125.022 195.443 125.022 194.985C125.022 194.641 124.935 194.325 124.761 194.037C124.587 193.749 124.338 193.52 124.015 193.35C123.696 193.179 123.316 193.094 122.875 193.094H120.441V196.588ZM120.441 191.81H122.646C123.016 191.81 123.348 191.739 123.642 191.597C123.941 191.455 124.177 191.256 124.351 191.001C124.528 190.741 124.617 190.436 124.617 190.085C124.617 189.634 124.459 189.255 124.143 188.95C123.827 188.645 123.342 188.492 122.689 188.492H120.441V191.81ZM134.375 187.091V198H132.729V187.091H134.375ZM140.379 198H136.847V187.091H140.491C141.56 187.091 142.477 187.309 143.245 187.746C144.012 188.179 144.599 188.803 145.008 189.616C145.42 190.425 145.626 191.397 145.626 192.529C145.626 193.666 145.418 194.642 145.002 195.459C144.59 196.276 143.994 196.904 143.213 197.345C142.431 197.782 141.487 198 140.379 198ZM138.493 196.562H140.288C141.119 196.562 141.81 196.406 142.36 196.093C142.911 195.777 143.323 195.321 143.596 194.724C143.87 194.124 144.006 193.392 144.006 192.529C144.006 191.674 143.87 190.947 143.596 190.351C143.326 189.754 142.923 189.301 142.387 188.993C141.851 188.684 141.185 188.529 140.389 188.529H138.493V196.562ZM155.483 189.818V191.097H151.014V189.818H155.483ZM152.213 187.858H153.806V195.598C153.806 195.907 153.852 196.139 153.944 196.295C154.036 196.448 154.155 196.553 154.301 196.61C154.45 196.663 154.612 196.69 154.786 196.69C154.914 196.69 155.025 196.681 155.121 196.663C155.217 196.645 155.292 196.631 155.345 196.62L155.633 197.936C155.54 197.972 155.409 198.007 155.238 198.043C155.068 198.082 154.855 198.103 154.599 198.107C154.18 198.114 153.79 198.039 153.427 197.883C153.065 197.727 152.772 197.485 152.548 197.158C152.325 196.832 152.213 196.422 152.213 195.928V187.858ZM160.679 198.165C159.912 198.165 159.242 197.989 158.671 197.638C158.099 197.286 157.655 196.794 157.339 196.162C157.023 195.53 156.865 194.792 156.865 193.946C156.865 193.098 157.023 192.355 157.339 191.72C157.655 191.084 158.099 190.591 158.671 190.239C159.242 189.887 159.912 189.712 160.679 189.712C161.446 189.712 162.115 189.887 162.687 190.239C163.259 190.591 163.703 191.084 164.019 191.72C164.335 192.355 164.493 193.098 164.493 193.946C164.493 194.792 164.335 195.53 164.019 196.162C163.703 196.794 163.259 197.286 162.687 197.638C162.115 197.989 161.446 198.165 160.679 198.165ZM160.684 196.828C161.181 196.828 161.593 196.697 161.92 196.434C162.247 196.171 162.488 195.821 162.644 195.385C162.804 194.948 162.884 194.467 162.884 193.941C162.884 193.419 162.804 192.94 162.644 192.503C162.488 192.062 162.247 191.709 161.92 191.443C161.593 191.176 161.181 191.043 160.684 191.043C160.183 191.043 159.768 191.176 159.438 191.443C159.111 191.709 158.868 192.062 158.708 192.503C158.552 192.94 158.474 193.419 158.474 193.941C158.474 194.467 158.552 194.948 158.708 195.385C158.868 195.821 159.111 196.171 159.438 196.434C159.768 196.697 160.183 196.828 160.684 196.828ZM173.453 198.16C172.793 198.16 172.203 197.991 171.685 197.654C171.17 197.313 170.765 196.828 170.47 196.2C170.179 195.567 170.033 194.809 170.033 193.925C170.033 193.041 170.181 192.284 170.475 191.656C170.774 191.027 171.182 190.546 171.701 190.212C172.219 189.879 172.807 189.712 173.464 189.712C173.972 189.712 174.38 189.797 174.689 189.967C175.001 190.134 175.243 190.33 175.413 190.553C175.587 190.777 175.722 190.974 175.818 191.145H175.914V187.091H177.507V198H175.951V196.727H175.818C175.722 196.901 175.584 197.1 175.403 197.324C175.225 197.547 174.98 197.743 174.668 197.909C174.355 198.076 173.95 198.16 173.453 198.16ZM173.805 196.801C174.263 196.801 174.65 196.681 174.966 196.439C175.285 196.194 175.527 195.855 175.69 195.422C175.857 194.989 175.941 194.484 175.941 193.909C175.941 193.341 175.859 192.844 175.696 192.418C175.532 191.991 175.293 191.659 174.976 191.422C174.66 191.184 174.27 191.065 173.805 191.065C173.325 191.065 172.926 191.189 172.606 191.438C172.287 191.686 172.045 192.025 171.882 192.455C171.722 192.885 171.642 193.369 171.642 193.909C171.642 194.456 171.724 194.948 171.887 195.385C172.05 195.821 172.292 196.168 172.611 196.423C172.935 196.675 173.332 196.801 173.805 196.801ZM179.855 198V189.818H181.448V198H179.855ZM180.659 188.556C180.382 188.556 180.144 188.463 179.945 188.279C179.75 188.091 179.652 187.867 179.652 187.608C179.652 187.345 179.75 187.121 179.945 186.936C180.144 186.748 180.382 186.654 180.659 186.654C180.936 186.654 181.172 186.748 181.368 186.936C181.566 187.121 181.666 187.345 181.666 187.608C181.666 187.867 181.566 188.091 181.368 188.279C181.172 188.463 180.936 188.556 180.659 188.556ZM189.796 191.816L188.353 192.071C188.292 191.887 188.196 191.711 188.065 191.544C187.937 191.377 187.763 191.24 187.543 191.134C187.323 191.027 187.048 190.974 186.717 190.974C186.266 190.974 185.89 191.075 185.588 191.278C185.286 191.477 185.135 191.734 185.135 192.05C185.135 192.324 185.237 192.544 185.439 192.711C185.641 192.877 185.968 193.014 186.419 193.121L187.719 193.419C188.472 193.593 189.033 193.861 189.402 194.223C189.771 194.586 189.956 195.056 189.956 195.635C189.956 196.125 189.814 196.562 189.53 196.945C189.249 197.325 188.857 197.624 188.353 197.84C187.852 198.057 187.271 198.165 186.611 198.165C185.695 198.165 184.947 197.97 184.368 197.579C183.789 197.185 183.434 196.626 183.303 195.901L184.842 195.667C184.938 196.068 185.135 196.372 185.434 196.578C185.732 196.78 186.121 196.881 186.6 196.881C187.122 196.881 187.539 196.773 187.852 196.556C188.164 196.336 188.321 196.068 188.321 195.752C188.321 195.496 188.225 195.282 188.033 195.108C187.845 194.934 187.555 194.802 187.165 194.713L185.78 194.41C185.016 194.236 184.452 193.959 184.086 193.579C183.724 193.199 183.543 192.718 183.543 192.135C183.543 191.652 183.678 191.23 183.948 190.868C184.217 190.505 184.59 190.223 185.066 190.021C185.542 189.815 186.087 189.712 186.701 189.712C187.586 189.712 188.282 189.903 188.789 190.287C189.297 190.667 189.633 191.176 189.796 191.816ZM191.782 201.068V189.818H193.338V191.145H193.471C193.563 190.974 193.696 190.777 193.87 190.553C194.044 190.33 194.286 190.134 194.595 189.967C194.904 189.797 195.312 189.712 195.82 189.712C196.48 189.712 197.07 189.879 197.588 190.212C198.107 190.546 198.513 191.027 198.808 191.656C199.106 192.284 199.256 193.041 199.256 193.925C199.256 194.809 199.108 195.567 198.813 196.2C198.519 196.828 198.114 197.313 197.599 197.654C197.084 197.991 196.496 198.16 195.836 198.16C195.339 198.16 194.932 198.076 194.616 197.909C194.303 197.743 194.058 197.547 193.881 197.324C193.703 197.1 193.567 196.901 193.471 196.727H193.375V201.068H191.782ZM193.343 193.909C193.343 194.484 193.426 194.989 193.593 195.422C193.76 195.855 194.002 196.194 194.318 196.439C194.634 196.681 195.021 196.801 195.479 196.801C195.955 196.801 196.352 196.675 196.672 196.423C196.992 196.168 197.233 195.821 197.397 195.385C197.563 194.948 197.647 194.456 197.647 193.909C197.647 193.369 197.565 192.885 197.402 192.455C197.242 192.025 197.001 191.686 196.677 191.438C196.358 191.189 195.958 191.065 195.479 191.065C195.017 191.065 194.627 191.184 194.307 191.422C193.991 191.659 193.751 191.991 193.588 192.418C193.425 192.844 193.343 193.341 193.343 193.909ZM202.708 187.091V198H201.115V187.091H202.708ZM207.306 198.181C206.788 198.181 206.319 198.085 205.9 197.893C205.481 197.698 205.149 197.416 204.904 197.047C204.663 196.677 204.542 196.224 204.542 195.688C204.542 195.227 204.631 194.847 204.808 194.548C204.986 194.25 205.225 194.014 205.527 193.84C205.829 193.666 206.166 193.534 206.539 193.446C206.912 193.357 207.292 193.289 207.679 193.243C208.169 193.186 208.567 193.14 208.872 193.105C209.178 193.066 209.4 193.004 209.538 192.918C209.677 192.833 209.746 192.695 209.746 192.503V192.466C209.746 192 209.615 191.64 209.352 191.384C209.093 191.129 208.706 191.001 208.191 191.001C207.654 191.001 207.232 191.12 206.923 191.358C206.617 191.592 206.406 191.853 206.289 192.141L204.792 191.8C204.97 191.303 205.229 190.901 205.57 190.596C205.914 190.287 206.31 190.063 206.758 189.925C207.205 189.783 207.676 189.712 208.169 189.712C208.496 189.712 208.842 189.751 209.208 189.829C209.577 189.903 209.922 190.042 210.241 190.244C210.565 190.447 210.829 190.736 211.035 191.113C211.241 191.485 211.344 191.97 211.344 192.567V198H209.789V196.881H209.725C209.622 197.087 209.467 197.29 209.261 197.489C209.055 197.687 208.791 197.853 208.468 197.984C208.144 198.115 207.757 198.181 207.306 198.181ZM207.653 196.903C208.093 196.903 208.469 196.816 208.782 196.642C209.098 196.468 209.338 196.24 209.501 195.96C209.668 195.676 209.751 195.372 209.751 195.049V193.994C209.695 194.051 209.584 194.104 209.421 194.154C209.261 194.2 209.078 194.241 208.872 194.277C208.666 194.309 208.466 194.339 208.271 194.367C208.075 194.392 207.912 194.413 207.78 194.431C207.472 194.47 207.189 194.536 206.934 194.628C206.681 194.721 206.479 194.854 206.326 195.028C206.177 195.198 206.103 195.425 206.103 195.71C206.103 196.104 206.248 196.402 206.539 196.604C206.831 196.803 207.202 196.903 207.653 196.903ZM214.254 201.068C214.016 201.068 213.8 201.049 213.604 201.01C213.409 200.974 213.263 200.935 213.168 200.892L213.551 199.587C213.842 199.665 214.101 199.699 214.329 199.689C214.556 199.678 214.757 199.593 214.931 199.433C215.108 199.273 215.264 199.012 215.399 198.65L215.597 198.107L212.603 189.818H214.307L216.38 196.168H216.465L218.537 189.818H220.247L216.875 199.092C216.719 199.518 216.52 199.879 216.278 200.173C216.037 200.472 215.749 200.695 215.415 200.844C215.082 200.994 214.695 201.068 214.254 201.068ZM228.926 198.16C228.266 198.16 227.676 197.991 227.158 197.654C226.643 197.313 226.238 196.828 225.943 196.2C225.652 195.567 225.506 194.809 225.506 193.925C225.506 193.041 225.654 192.284 225.948 191.656C226.247 191.027 226.655 190.546 227.174 190.212C227.692 189.879 228.28 189.712 228.937 189.712C229.445 189.712 229.853 189.797 230.162 189.967C230.474 190.134 230.716 190.33 230.886 190.553C231.06 190.777 231.195 190.974 231.291 191.145H231.387V187.091H232.98V198H231.424V196.727H231.291C231.195 196.901 231.057 197.1 230.876 197.324C230.698 197.547 230.453 197.743 230.141 197.909C229.828 198.076 229.423 198.16 228.926 198.16ZM229.278 196.801C229.736 196.801 230.123 196.681 230.439 196.439C230.758 196.194 231 195.855 231.163 195.422C231.33 194.989 231.414 194.484 231.414 193.909C231.414 193.341 231.332 192.844 231.169 192.418C231.005 191.991 230.766 191.659 230.45 191.422C230.133 191.184 229.743 191.065 229.278 191.065C228.798 191.065 228.399 191.189 228.079 191.438C227.76 191.686 227.518 192.025 227.355 192.455C227.195 192.885 227.115 193.369 227.115 193.909C227.115 194.456 227.197 194.948 227.36 195.385C227.523 195.821 227.765 196.168 228.084 196.423C228.408 196.675 228.805 196.801 229.278 196.801ZM238.854 198.165C238.048 198.165 237.354 197.993 236.771 197.648C236.193 197.3 235.745 196.812 235.429 196.184C235.117 195.551 234.96 194.811 234.96 193.962C234.96 193.124 235.117 192.386 235.429 191.746C235.745 191.107 236.185 190.608 236.75 190.25C237.318 189.891 237.982 189.712 238.742 189.712C239.204 189.712 239.651 189.788 240.085 189.941C240.518 190.093 240.907 190.333 241.251 190.66C241.596 190.987 241.867 191.411 242.066 191.933C242.265 192.451 242.364 193.082 242.364 193.824V194.388H235.861V193.195H240.804C240.804 192.776 240.719 192.405 240.548 192.082C240.378 191.755 240.138 191.498 239.829 191.31C239.524 191.121 239.165 191.027 238.753 191.027C238.306 191.027 237.915 191.137 237.581 191.358C237.251 191.574 236.995 191.858 236.814 192.21C236.636 192.558 236.548 192.936 236.548 193.344V194.277C236.548 194.824 236.644 195.289 236.835 195.672C237.031 196.056 237.302 196.349 237.65 196.551C237.998 196.75 238.405 196.849 238.87 196.849C239.172 196.849 239.447 196.807 239.696 196.722C239.944 196.633 240.159 196.501 240.34 196.327C240.521 196.153 240.66 195.939 240.756 195.683L242.263 195.955C242.143 196.398 241.926 196.787 241.613 197.121C241.304 197.451 240.916 197.709 240.447 197.893C239.982 198.075 239.451 198.165 238.854 198.165ZM248.026 189.818V191.097H243.557V189.818H248.026ZM244.755 187.858H246.348V195.598C246.348 195.907 246.394 196.139 246.486 196.295C246.579 196.448 246.698 196.553 246.843 196.61C246.992 196.663 247.154 196.69 247.328 196.69C247.456 196.69 247.568 196.681 247.664 196.663C247.76 196.645 247.834 196.631 247.887 196.62L248.175 197.936C248.083 197.972 247.951 198.007 247.781 198.043C247.61 198.082 247.397 198.103 247.142 198.107C246.723 198.114 246.332 198.039 245.97 197.883C245.608 197.727 245.315 197.485 245.091 197.158C244.867 196.832 244.755 196.422 244.755 195.928V187.858ZM252.244 198.181C251.725 198.181 251.256 198.085 250.837 197.893C250.418 197.698 250.086 197.416 249.841 197.047C249.6 196.677 249.479 196.224 249.479 195.688C249.479 195.227 249.568 194.847 249.745 194.548C249.923 194.25 250.163 194.014 250.465 193.84C250.766 193.666 251.104 193.534 251.477 193.446C251.85 193.357 252.229 193.289 252.617 193.243C253.107 193.186 253.504 193.14 253.81 193.105C254.115 193.066 254.337 193.004 254.476 192.918C254.614 192.833 254.683 192.695 254.683 192.503V192.466C254.683 192 254.552 191.64 254.289 191.384C254.03 191.129 253.643 191.001 253.128 191.001C252.592 191.001 252.169 191.12 251.86 191.358C251.555 191.592 251.343 191.853 251.226 192.141L249.729 191.8C249.907 191.303 250.166 190.901 250.507 190.596C250.852 190.287 251.248 190.063 251.695 189.925C252.142 189.783 252.613 189.712 253.107 189.712C253.433 189.712 253.78 189.751 254.145 189.829C254.515 189.903 254.859 190.042 255.179 190.244C255.502 190.447 255.766 190.736 255.972 191.113C256.178 191.485 256.281 191.97 256.281 192.567V198H254.726V196.881H254.662C254.559 197.087 254.405 197.29 254.199 197.489C253.993 197.687 253.728 197.853 253.405 197.984C253.082 198.115 252.695 198.181 252.244 198.181ZM252.59 196.903C253.03 196.903 253.407 196.816 253.719 196.642C254.035 196.468 254.275 196.24 254.438 195.96C254.605 195.676 254.689 195.372 254.689 195.049V193.994C254.632 194.051 254.522 194.104 254.358 194.154C254.199 194.2 254.016 194.241 253.81 194.277C253.604 194.309 253.403 194.339 253.208 194.367C253.013 194.392 252.849 194.413 252.718 194.431C252.409 194.47 252.127 194.536 251.871 194.628C251.619 194.721 251.416 194.854 251.264 195.028C251.114 195.198 251.04 195.425 251.04 195.71C251.04 196.104 251.185 196.402 251.477 196.604C251.768 196.803 252.139 196.903 252.59 196.903ZM258.478 198V189.818H260.07V198H258.478ZM259.282 188.556C259.005 188.556 258.767 188.463 258.568 188.279C258.373 188.091 258.275 187.867 258.275 187.608C258.275 187.345 258.373 187.121 258.568 186.936C258.767 186.748 259.005 186.654 259.282 186.654C259.559 186.654 259.795 186.748 259.99 186.936C260.189 187.121 260.289 187.345 260.289 187.608C260.289 187.867 260.189 188.091 259.99 188.279C259.795 188.463 259.559 188.556 259.282 188.556ZM263.881 187.091V198H262.288V187.091H263.881ZM272.229 191.816L270.786 192.071C270.726 191.887 270.63 191.711 270.498 191.544C270.37 191.377 270.196 191.24 269.976 191.134C269.756 191.027 269.481 190.974 269.151 190.974C268.7 190.974 268.323 191.075 268.021 191.278C267.72 191.477 267.569 191.734 267.569 192.05C267.569 192.324 267.67 192.544 267.872 192.711C268.075 192.877 268.401 193.014 268.852 193.121L270.152 193.419C270.905 193.593 271.466 193.861 271.835 194.223C272.205 194.586 272.389 195.056 272.389 195.635C272.389 196.125 272.247 196.562 271.963 196.945C271.683 197.325 271.29 197.624 270.786 197.84C270.285 198.057 269.705 198.165 269.044 198.165C268.128 198.165 267.38 197.97 266.802 197.579C266.223 197.185 265.868 196.626 265.736 195.901L267.276 195.667C267.371 196.068 267.569 196.372 267.867 196.578C268.165 196.78 268.554 196.881 269.033 196.881C269.555 196.881 269.973 196.773 270.285 196.556C270.598 196.336 270.754 196.068 270.754 195.752C270.754 195.496 270.658 195.282 270.466 195.108C270.278 194.934 269.989 194.802 269.598 194.713L268.213 194.41C267.45 194.236 266.885 193.959 266.519 193.579C266.157 193.199 265.976 192.718 265.976 192.135C265.976 191.652 266.111 191.23 266.381 190.868C266.651 190.505 267.023 190.223 267.499 190.021C267.975 189.815 268.52 189.712 269.135 189.712C270.019 189.712 270.715 189.903 271.223 190.287C271.731 190.667 272.066 191.176 272.229 191.816Z" fill="#6B7280"/>
<defs>
<linearGradient id="paint0_linear_1_36086" x1="166.434" y1="56.6593" x2="166.434" y2="0" gradientUnits="userSpaceOnUse">
<stop stop-color="white" stop-opacity="0"/>
<stop offset="1" stop-color="#E3E3E3"/>
</linearGradient>
<linearGradient id="paint1_linear_1_36086" x1="208.245" y1="59.3392" x2="208.245" y2="24.6244" gradientUnits="userSpaceOnUse">
<stop stop-color="white" stop-opacity="0"/>
<stop offset="1" stop-color="#E3E3E3"/>
</linearGradient>
<linearGradient id="paint2_linear_1_36086" x1="44.0091" y1="71.9453" x2="44.0091" y2="37.2237" gradientUnits="userSpaceOnUse">
<stop stop-color="white" stop-opacity="0"/>
<stop offset="1" stop-color="#E3E3E3"/>
</linearGradient>
<linearGradient id="paint3_linear_1_36086" x1="67.9499" y1="73.3057" x2="67.9499" y2="51.5389" gradientUnits="userSpaceOnUse">
<stop stop-color="white" stop-opacity="0"/>
<stop offset="1" stop-color="#E3E3E3"/>
</linearGradient>
<linearGradient id="paint4_linear_1_36086" x1="190.887" y1="61.4789" x2="190.887" y2="44.1215" gradientUnits="userSpaceOnUse">
<stop stop-color="white" stop-opacity="0"/>
<stop offset="0.06" stop-color="#FAFAFA" stop-opacity="0.18"/>
<stop offset="0.14" stop-color="#F5F5F5" stop-opacity="0.37"/>
<stop offset="0.22" stop-color="#F0F0F0" stop-opacity="0.54"/>
<stop offset="0.31" stop-color="#ECECEC" stop-opacity="0.68"/>
<stop offset="0.4" stop-color="#E9E9E9" stop-opacity="0.8"/>
<stop offset="0.51" stop-color="#E6E6E6" stop-opacity="0.89"/>
<stop offset="0.62" stop-color="#E4E4E4" stop-opacity="0.95"/>
<stop offset="0.76" stop-color="#E3E3E3" stop-opacity="0.99"/>
<stop offset="1" stop-color="#E3E3E3"/>
</linearGradient>
<linearGradient id="paint5_linear_1_36086" x1="137.003" y1="144" x2="137.003" y2="83.7311" gradientUnits="userSpaceOnUse">
<stop stop-color="white" stop-opacity="0"/>
<stop offset="0.13" stop-color="#FEFEFE" stop-opacity="0.02"/>
<stop offset="0.26" stop-color="#FDFDFD" stop-opacity="0.07"/>
<stop offset="0.4" stop-color="#FAFAFA" stop-opacity="0.16"/>
<stop offset="0.53" stop-color="#F7F7F7" stop-opacity="0.29"/>
<stop offset="0.67" stop-color="#F2F2F2" stop-opacity="0.46"/>
<stop offset="0.81" stop-color="#EDEDED" stop-opacity="0.66"/>
<stop offset="0.94" stop-color="#E6E6E6" stop-opacity="0.9"/>
<stop offset="1" stop-color="#E3E3E3"/>
</linearGradient>
<linearGradient id="paint6_linear_1_36086" x1="58.0236" y1="113.859" x2="58.0236" y2="111.733" gradientUnits="userSpaceOnUse">
<stop stop-color="white" stop-opacity="0"/>
<stop offset="1" stop-color="#D6D6D6"/>
</linearGradient>
<linearGradient id="paint7_linear_1_36086" x1="138.852" y1="141.17" x2="138.852" y2="116.559" gradientUnits="userSpaceOnUse">
<stop stop-color="white" stop-opacity="0"/>
<stop offset="1" stop-color="#E4E7F9"/>
</linearGradient>
<linearGradient id="paint8_linear_1_36086" x1="111.71" y1="76.0539" x2="111.71" y2="68.4929" gradientUnits="userSpaceOnUse">
<stop stop-color="#AFBBF4"/>
<stop offset="1" stop-color="white"/>
</linearGradient>
<linearGradient id="paint9_linear_1_36086" x1="124.496" y1="41.3596" x2="124.496" y2="21.5343" gradientUnits="userSpaceOnUse">
<stop stop-color="#909DDD"/>
<stop offset="1" stop-color="#DFE5FF"/>
</linearGradient>
<linearGradient id="paint10_linear_1_36086" x1="143.637" y1="45.441" x2="143.637" y2="34.5439" gradientUnits="userSpaceOnUse">
<stop stop-color="#94A1DE"/>
<stop offset="1" stop-color="#DCE2FE"/>
</linearGradient>
<linearGradient id="paint11_linear_1_36086" x1="100.537" y1="53.4531" x2="100.537" y2="42.5151" gradientUnits="userSpaceOnUse">
<stop stop-color="#94A1DE"/>
<stop offset="1" stop-color="#DCE2FE"/>
</linearGradient>
<linearGradient id="paint12_linear_1_36086" x1="161.7" y1="41.8929" x2="161.7" y2="13.6726" gradientUnits="userSpaceOnUse">
<stop stop-color="#8E9EE7"/>
<stop offset="1" stop-color="#E5E9FF"/>
</linearGradient>
<linearGradient id="paint13_linear_1_36086" x1="153.198" y1="80.9283" x2="153.198" y2="70.0106" gradientUnits="userSpaceOnUse">
<stop stop-color="#AFBBF4"/>
<stop offset="1" stop-color="white"/>
</linearGradient>
<clipPath id="clip0_1_36086">
<rect width="249.368" height="144" fill="white" transform="translate(12.316)"/>
</clipPath>
<clipPath id="clip1_1_36086">
<rect width="87.569" height="127.497" fill="white" transform="translate(95.0353 13.6726)"/>
</clipPath>
</defs>
</svg>
